<svg width="32" height="39" viewBox="0 0 32 39" fill="none" xmlns="http://www.w3.org/2000/svg">
<path fill-rule="evenodd" clip-rule="evenodd" d="M8.47254 6.97662C4.44007 10.3325 1.08104 13.1468 1.00822 13.2304C0.817603 13.4493 0.84092 13.792 1.06159 14.0126L1.24736 14.1985H4.39246H7.53748V17.4399V20.6815L7.23081 21.0925C6.16917 22.5154 5.4195 24.4341 5.19263 26.3088C4.98104 28.0578 5.25023 29.9789 5.94305 31.6633C7.32105 35.0137 10.235 37.4283 13.8443 38.2107C14.9563 38.4517 17.0758 38.4517 18.1878 38.2107C20.3824 37.735 22.1054 36.8025 23.6666 35.2458C25.6873 33.2308 26.7708 30.8021 26.8969 28.0049C27.0067 25.5686 26.2304 23.0079 24.8013 21.0925L24.4946 20.6815V17.4399V14.1985H27.6397H30.7847L30.9705 14.0126C31.2069 13.7763 31.2133 13.4364 30.986 13.1881C30.8924 13.0857 27.5368 10.2734 23.5291 6.93847C17.5709 1.98039 16.2026 0.875 16.0235 0.875C15.8444 0.875 14.4684 1.9869 8.47254 6.97662ZM22.4991 7.66513L28.8397 12.9494L26.2156 12.9873C23.828 13.0217 23.5792 13.0373 23.4563 13.1602C23.3325 13.2841 23.3181 13.5481 23.2834 16.3235L23.2456 19.3516L22.6464 18.8922C20.6827 17.3863 18.0368 16.5374 15.6375 16.6432C13.2043 16.7505 10.9057 17.6238 8.99473 19.1669L8.7487 19.3656V16.3741C8.7487 13.542 8.74098 13.373 8.60404 13.2038L8.45945 13.0251L5.8329 12.9873L3.20636 12.9494L9.59058 7.62985C13.1018 4.70414 16.0161 2.3262 16.0667 2.34558C16.1173 2.36503 19.0119 4.75879 22.4991 7.66513ZM17.7993 18.0198C23.5946 19.1287 27.0856 25.1332 25.1722 30.7014C24.1913 33.5561 21.8087 35.8733 18.9216 36.7809C15.5516 37.8401 11.7563 36.9301 9.25901 34.4639C8.45067 33.6657 7.94445 32.9787 7.43475 31.9883C6.73164 30.6222 6.41808 29.4385 6.35184 27.9005C6.18999 24.14 8.292 20.5925 11.7011 18.8724C12.0133 18.7149 12.6265 18.4707 13.0637 18.3298C13.7557 18.1067 14.1318 18.0276 15.2212 17.8758C15.6413 17.8173 17.1942 17.9041 17.7993 18.0198ZM15.5963 21.0461C15.4252 21.2171 15.4104 21.2887 15.4104 21.946V22.6602L15.1539 22.7083C14.7232 22.7892 14.0003 23.1952 13.7048 23.5223C12.5348 24.8174 12.9009 26.8546 14.4455 27.6437C14.6434 27.7448 15.3076 27.9497 15.9217 28.099C16.5357 28.2484 17.1579 28.4369 17.3043 28.518C18.1143 28.9668 18.2181 30.2683 17.4896 30.8414C17.1566 31.1033 16.806 31.174 15.9895 31.1438C15.3448 31.1199 15.174 31.0865 14.9319 30.9369C14.5354 30.6918 14.2806 30.2796 14.2225 29.7891C14.1384 29.0791 13.5998 28.7958 13.1635 29.2321C12.9813 29.4143 12.9706 29.4626 13.0125 29.9118C13.1193 31.0558 13.943 32.0153 15.0596 32.2965L15.4104 32.3848V33.0984C15.4104 33.7551 15.4253 33.8269 15.5963 33.9978C15.7134 34.115 15.8686 34.1837 16.0161 34.1837C16.1635 34.1837 16.3187 34.115 16.4358 33.9978C16.6068 33.8269 16.6217 33.7551 16.6217 33.0984V32.3848L16.9812 32.2944C19.3617 31.6958 19.7639 28.5129 17.5988 27.4064C17.29 27.2485 16.9526 27.1417 15.4297 26.7196C14.9745 26.5934 14.526 26.2353 14.3772 25.8791C14.1262 25.2784 14.3532 24.5185 14.8959 24.1428C15.192 23.9377 15.2517 23.9261 16.0098 23.9261C16.7213 23.9261 16.8432 23.9463 17.0999 24.1058C17.4972 24.3527 17.7516 24.7647 17.8097 25.2548C17.8937 25.9645 18.4323 26.2481 18.8683 25.8122C19.0463 25.6341 19.0603 25.5763 19.0238 25.1732C18.9232 24.0639 18.0709 23.0559 17.0055 22.7863L16.6595 22.6987L16.6217 21.9239C16.5875 21.2247 16.5663 21.135 16.4051 21.0047C16.1562 20.8034 15.8217 20.8205 15.5963 21.0461Z" fill="black"/>
</svg>
