<svg width="38" height="28" viewBox="0 0 38 28" fill="none" xmlns="http://www.w3.org/2000/svg">
<path fill-rule="evenodd" clip-rule="evenodd" d="M31.4855 0.721533C31.04 1.30062 30.4865 1.72694 29.7224 2.07958C29.1436 2.34671 28.1685 2.59445 27.6771 2.59922C27.0796 2.60501 26.9894 2.87199 26.9894 4.63562V6.03856H15.4596C4.22092 6.03856 3.91725 6.04248 3.43266 6.1922C2.01188 6.63135 1.10737 7.75785 0.934889 9.30331C0.885296 9.74731 0.864722 12.6723 0.879898 17.1192L0.904152 24.2256L1.08187 24.753C1.42942 25.7842 2.31046 26.657 3.34786 26.9979C3.8352 27.158 3.92249 27.159 16.8244 27.159C29.7013 27.159 29.8143 27.1577 30.2855 26.999C31.0788 26.7317 31.6779 26.284 32.1066 25.6381C32.6938 24.7536 32.6562 25.1909 32.6997 18.7263L32.7388 12.9142L33.1691 12.7388C33.8492 12.4617 34.7906 11.7808 35.5579 11.011C36.3356 10.2307 36.818 9.55911 37.0936 8.87308C37.2696 8.43487 37.2738 8.36087 37.2748 5.69946L37.2758 2.97446L37.0563 2.78563C36.9302 2.67705 36.7375 2.59672 36.6032 2.59672C36.0856 2.59672 35.1287 2.33568 34.4598 2.01199C33.7671 1.6768 33.2397 1.24806 32.652 0.542166C32.454 0.304444 32.3565 0.25 32.1285 0.25C31.8783 0.25 31.8097 0.300298 31.4855 0.721533ZM32.3928 2.01848C32.6535 2.29907 33.4374 2.84891 33.9273 3.09484C34.3795 3.32193 35.5874 3.69185 35.8765 3.69185H36.0633V6.01791V8.3439L35.8541 8.75739C35.5527 9.35314 34.8374 10.1683 34.0908 10.767C33.378 11.3385 32.4845 11.8271 32.1522 11.8271C31.8131 11.8271 30.9187 11.3348 30.1962 10.7505C29.4141 10.118 28.7169 9.31685 28.4166 8.70537L28.2018 8.26794V6.00563V3.74324L28.838 3.60635C29.9841 3.35963 31.3008 2.67979 31.9115 2.0195C32.1454 1.76668 32.1586 1.76668 32.3928 2.01848ZM33.9898 4.70422C33.9033 4.73927 33.3609 5.30123 32.7844 5.95307L31.7362 7.13808L31.016 6.43187C30.6199 6.04349 30.24 5.72567 30.1717 5.72567C29.7848 5.72567 29.4198 6.15551 29.525 6.4871C29.5507 6.56798 30.0058 7.06345 30.5364 7.58794C31.3459 8.38817 31.5396 8.54173 31.7398 8.54173C31.871 8.54173 32.051 8.48017 32.1398 8.40484C32.4274 8.16093 34.6691 5.61365 34.7526 5.43585C34.8616 5.20399 34.7064 4.83533 34.4508 4.71893C34.2292 4.61794 34.2043 4.61716 33.9898 4.70422ZM26.9894 7.54954C26.9894 8.79924 27.6154 9.98105 28.9255 11.2045C29.6022 11.8365 30.789 12.6479 31.2299 12.78L31.5264 12.8688L31.5256 18.5472L31.5248 24.2256L31.3403 24.6167C31.1262 25.0708 30.6816 25.5383 30.2357 25.7782L29.9228 25.9465H16.8203H3.71778L3.40489 25.7785C2.94337 25.5307 2.50821 25.0721 2.2974 24.6116L2.11123 24.205L2.13226 16.5102L2.15331 8.81551L2.3254 8.49378C2.55162 8.0709 3.2073 7.48813 3.62196 7.34131C3.90936 7.23954 5.4556 7.2235 15.4709 7.2181L26.9894 7.21192V7.54954ZM7.45805 10.1068C7.10691 10.2483 7.02439 10.6669 7.28292 10.9955L7.44523 11.202L16.8373 11.1821L26.2294 11.1622L26.383 10.9565C26.4974 10.8033 26.5228 10.688 26.4827 10.5053C26.3718 10.0007 26.9213 10.0274 16.8046 10.0329C11.7149 10.0357 7.55286 10.0686 7.45805 10.1068ZM4.19769 13.7884C3.92829 14.0003 3.91671 14.3891 4.17258 14.6296L4.35367 14.7996H16.8312H29.3088L29.4789 14.6186C29.7195 14.3624 29.7036 13.9935 29.4429 13.7884L29.2367 13.6263H16.8203H4.40381L4.19769 13.7884ZM4.16162 19.987C3.99837 20.1608 3.99157 20.2327 3.99157 21.7775C3.99157 23.2455 4.00471 23.4032 4.14113 23.5716L4.29062 23.7563H7.00303H9.71544L9.90428 23.5368C10.0902 23.3206 10.093 23.2938 10.093 21.7537C10.093 20.1977 10.0921 20.189 9.90099 19.998L9.70902 19.806H7.02039H4.33176L4.16162 19.987ZM8.90285 21.7811L8.88056 22.5829L7.02274 22.6039L5.16493 22.6248V21.8021V20.9793H7.04504H8.92514L8.90285 21.7811Z" fill="black"/>
</svg>
